<svg viewBox="0 0 64 64" height="64" width="64" xmlns="http://www.w3.org/2000/svg" xml:space="preserve" style="fill-rule:evenodd;clip-rule:evenodd;stroke-linejoin:round;stroke-miterlimit:2"><path d="M19.261 60.031c-1.4 0-2.599-.499-3.595-1.495-.997-.997-1.496-2.196-1.496-3.596V9.122c0-1.4.499-2.598 1.496-3.596.997-.996 2.195-1.495 3.595-1.495h25.455c1.4 0 2.598.499 3.595 1.495.998.998 1.495 2.196 1.495 3.596V54.94c0 1.4-.497 2.599-1.495 3.596-.997.996-2.195 1.495-3.595 1.495H19.261Zm0-12.727h25.455V16.759H19.261v30.545ZM39.2 38.29c0 2.084-.729 3.854-2.188 5.312-1.458 1.46-3.228 2.188-5.312 2.188s-3.854-.729-5.313-2.188C24.93 42.144 24.2 40.374 24.2 38.29c0-1.688.474-3.161 1.421-4.421.949-1.262 2.142-2.142 3.579-2.642V18.29h5v2.5h5v5h-5v5.437c1.438.5 2.63 1.38 3.577 2.64.95 1.262 1.423 2.735 1.423 4.423Zm-5 0c0-.688-.245-1.276-.734-1.765a2.408 2.408 0 0 0-1.766-.735c-.688 0-1.276.245-1.765.735a2.404 2.404 0 0 0-.735 1.765c0 .687.245 1.276.735 1.766a2.407 2.407 0 0 0 1.765.734c.688 0 1.276-.245 1.766-.734.489-.49.734-1.079.734-1.766Z"/></svg>