<?xml version="1.0" encoding="UTF-8" standalone="no"?>
<!-- Created with Inkscape (http://www.inkscape.org/) -->

<svg
   xmlns:dc="http://purl.org/dc/elements/1.1/"
   xmlns:cc="http://creativecommons.org/ns#"
   xmlns:rdf="http://www.w3.org/1999/02/22-rdf-syntax-ns#"
   xmlns:svg="http://www.w3.org/2000/svg"
   xmlns="http://www.w3.org/2000/svg"
   xmlns:sodipodi="http://sodipodi.sourceforge.net/DTD/sodipodi-0.dtd"
   xmlns:inkscape="http://www.inkscape.org/namespaces/inkscape"
   width="64"
   height="64"
   viewBox="0 0 16.933333 16.933334"
   version="1.1"
   id="svg8"
   inkscape:version="0.92.0 r"
   sodipodi:docname="app.svg">
  <defs
     id="defs2" />
  <sodipodi:namedview
     id="base"
     pagecolor="#ffffff"
     bordercolor="#666666"
     borderopacity="1.0"
     inkscape:pageopacity="0"
     inkscape:pageshadow="2"
     inkscape:zoom="11.2"
     inkscape:cx="32.633775"
     inkscape:cy="31.775218"
     inkscape:document-units="mm"
     inkscape:current-layer="layer1"
     showgrid="true"
     units="px"
     inkscape:window-width="1920"
     inkscape:window-height="1016"
     inkscape:window-x="0"
     inkscape:window-y="27"
     inkscape:window-maximized="1">
    <inkscape:grid
       type="xygrid"
       id="grid5055" />
  </sodipodi:namedview>
  <metadata
     id="metadata5">
    <rdf:RDF>
      <cc:Work
         rdf:about="">
        <dc:format>image/svg+xml</dc:format>
        <dc:type
           rdf:resource="http://purl.org/dc/dcmitype/StillImage" />
        <dc:title></dc:title>
      </cc:Work>
    </rdf:RDF>
  </metadata>
  <g
     inkscape:label="Ebene 1"
     inkscape:groupmode="layer"
     id="layer1"
     transform="translate(0,-280.06665)">
    <ellipse
       style="opacity:1;fill:#ff9e00;fill-opacity:1;stroke:none;stroke-width:0.26458332;stroke-linecap:round;stroke-linejoin:round;stroke-miterlimit:10;stroke-dasharray:none;stroke-dashoffset:0;stroke-opacity:1"
       id="path5700"
       cx="5.962574"
       cy="295.00143"
       r="0.52916664" />
    <g
       id="g5768"
       style="stroke:none;fill:#ffffff;fill-opacity:1">
      <path
         id="path5123"
         style="fill:#ffffff;fill-rule:evenodd;stroke:none;stroke-width:0.03872699px;fill-opacity:1"
         d="m 7.2857231,287.2998 a 0.84353071,0.83657968 0 0 0 -0.8435306,0.83663 0.84353071,0.83657968 0 0 0 0.8435306,0.83662 0.84353071,0.83657968 0 0 0 0.8435307,-0.83662 0.84353071,0.83657968 0 0 0 -0.8435307,-0.83663 z m 0,-0.33464 a 1.1809429,1.1712584 0 0 1 1.167784,1.00395 h 2.3750459 v 0.33464 H 10.49114 v 0.6693 h -0.337411 v -0.6693 H 9.8163143 v 0.33464 h -0.337412 v -0.33464 h -1.02607 a 1.1809429,1.1712584 0 0 1 -1.1671092,1.00394 1.1809429,1.1712584 0 0 1 -1.1809429,-1.17126 1.1809429,1.1712584 0 0 1 1.1809429,-1.17127 z m -2.0318516,-5.8402 c -0.7119572,0 -1.2851215,0.57962 -1.2851215,1.29972 v 12.21724 c 0,0.7201 0.5731643,1.29971 1.2851215,1.29971 H 11.67946 c 0.711951,0 1.285123,-0.57961 1.285123,-1.29971 v -12.21724 c 0,-0.7201 -0.573172,-1.29972 -1.285123,-1.29972 z m 2.0561959,0.77985 h 2.3132197 v 0.25989 H 7.3100674 Z m -2.0561959,0.77975 H 11.67946 v 11.17751 H 5.2538715 Z m 3.2128054,11.69747 a 0.38553662,0.38991274 0 0 1 0.3855368,0.38988 0.38553662,0.38991274 0 0 1 -0.3855368,0.38987 0.38553662,0.38991274 0 0 1 -0.3855368,-0.38987 0.38553662,0.38991274 0 0 1 0.3855368,-0.38988 z" />
    </g>
  </g>
</svg>
