<svg viewBox="0 0 64 64" height="64" width="64" xmlns="http://www.w3.org/2000/svg" xml:space="preserve" style="fill-rule:evenodd;clip-rule:evenodd;stroke-linejoin:round;stroke-miterlimit:2"><path d="M-10.393 2.049c0-1.12.399-2.079 1.196-2.876.798-.798 1.757-1.197 2.877-1.197h36.654c1.12 0 2.079.399 2.877 1.197.797.797 1.196 1.756 1.196 2.876v20.364c0 1.12-.399 2.078-1.196 2.876-.798.798-1.757 1.196-2.877 1.196H-6.32c-1.12 0-2.079-.398-2.877-1.196-.797-.798-1.196-1.756-1.196-2.876V2.049Zm10.182 0v20.364h24.436V2.049H-.211ZM7 18c-1.667 0-3.083-.583-4.25-1.75C1.583 15.083 1 13.667 1 12c0-1.667.583-3.083 1.75-4.25C3.917 6.583 5.333 6 7 6c1.35 0 2.529.379 3.537 1.137C11.546 7.896 12.25 8.85 12.65 10H23v4h-2v4h-4v-4h-4.35c-.4 1.15-1.104 2.104-2.112 2.862C9.529 17.621 8.35 18 7 18Zm0-4c.55 0 1.021-.196 1.412-.587C8.804 13.021 9 12.55 9 12s-.196-1.021-.588-1.412A1.923 1.923 0 0 0 7 10c-.55 0-1.021.196-1.413.588A1.926 1.926 0 0 0 5 12c0 .55.196 1.021.587 1.413A1.93 1.93 0 0 0 7 14Z" style="fill:#fff" transform="matrix(0 -1.25 1.25 0 16.7 47.04)"/></svg>