<?xml version="1.0" encoding="UTF-8"?>
<svg width="64" height="64" version="1.1" viewBox="0 0 16.933333 16.933334" xmlns="http://www.w3.org/2000/svg">
 <g transform="translate(0 -280.07)">
  <ellipse cx="5.9626" cy="295" r=".52917" fill="#ff9e00"/>
  <g fill="#fff">
   <path transform="matrix(.26458 0 0 .26458 0 280.07)" d="m18 4c-2.77 0-5 2.23-5 5v46c0 2.77 2.23 5 5 5h28c2.77 0 5-2.23 5-5v-46c0-2.77-2.23-5-5-5h-28zm0 6h28v40h-28v-40zm14 42a3 3 0 0 1 3 3 3 3 0 0 1 -3 3 3 3 0 0 1 -3 -3 3 3 0 0 1 3 -3z"/>
   <path d="m8.4667 287.74a2.3812 2.3812 0 0 0 -2.3812 2.3812 2.3812 2.3812 0 0 0 2.3812 2.3812 2.3812 2.3812 0 0 0 2.3813 -2.3812 2.3812 2.3812 0 0 0 -2.3813 -2.3812zm0 1.0583a1.3229 1.3229 0 0 1 1.3229 1.3229 1.3229 1.3229 0 0 1 -1.3229 1.3229 1.3229 1.3229 0 0 1 -1.3229 -1.3229 1.3229 1.3229 0 0 1 1.3229 -1.3229z"/>
   <rect x="7.6729" y="283.51" width="1.0583" height="4.4979"/>
   <rect x="7.6729" y="284.04" width="2.3812" height=".79375"/>
   <rect x="7.6729" y="285.36" width="1.8521" height=".79375"/>
  </g>
 </g>
</svg>
